<svg xmlns="http://www.w3.org/2000/svg" viewBox="0 0 300 264.29" width="200" height="200" preserveAspectRatio="xMinYMin meet"><g fill-rule="evenodd" fill="#00758F"><path d="M265.589 121.008c-8.653-.217-15.354.648-20.974 3.035-1.622.65-4.213.65-4.435 2.71.87.865.975 2.273 1.737 3.47 1.294 2.169 3.56 5.09 5.618 6.612 2.27 1.736 4.541 3.464 6.922 4.98 4.214 2.614 8.972 4.125 13.075 6.727 2.386 1.516 4.756 3.465 7.142 5.096 1.185.866 1.935 2.278 3.455 2.814v-.328c-.762-.973-.974-2.382-1.727-3.472-1.08-1.076-2.163-2.058-3.246-3.137-3.137-4.227-7.034-7.909-11.24-10.944-3.462-2.391-11.034-5.644-12.434-9.643l-.22-.221c2.38-.22 5.195-1.089 7.464-1.746 3.67-.973 7.022-.753 10.806-1.726 1.732-.437 3.462-.982 5.2-1.515v-.983c-1.957-1.946-3.357-4.552-5.41-6.393-5.51-4.768-11.571-9.426-17.84-13.334-3.356-2.168-7.68-3.57-11.25-5.418-1.29-.652-3.45-.973-4.21-2.063-1.947-2.384-3.033-5.523-4.435-8.346-3.132-5.955-6.165-12.565-8.863-18.862-1.945-4.225-3.135-8.45-5.514-12.354-11.14-18.432-23.244-29.59-41.84-40.54-4-2.28-8.756-3.255-13.833-4.447-2.707-.114-5.408-.325-8.11-.431-1.733-.762-3.465-2.823-4.976-3.799-6.165-3.9-22.05-12.353-26.594-1.19-2.92 7.05 4.325 13.984 6.812 17.563 1.837 2.49 4.218 5.313 5.51 8.127.757 1.843.974 3.798 1.734 5.746 1.728 4.769 3.347 10.082 5.622 14.528 1.185 2.277 2.481 4.665 3.994 6.715.873 1.2 2.382 1.734 2.707 3.692-1.508 2.165-1.626 5.417-2.49 8.129-3.89 12.25-2.379 27.424 3.137 36.42 1.726 2.71 5.84 8.673 11.353 6.391 4.865-1.947 3.784-8.126 5.188-13.543.324-1.31.107-2.17.753-3.035v.219c1.513 3.03 3.031 5.95 4.435 8.995 3.357 5.306 9.19 10.836 14.058 14.518 2.588 1.959 4.643 5.314 7.886 6.51v-.328h-.212c-.651-.973-1.622-1.41-2.488-2.165-1.945-1.952-4.102-4.338-5.622-6.505-4.539-6.068-8.544-12.792-12.104-19.729-1.735-3.368-3.245-7.05-4.652-10.408-.647-1.295-.647-3.252-1.73-3.9-1.626 2.381-3.999 4.444-5.186 7.362-2.056 4.666-2.27 10.41-3.033 16.375-.43.113-.212 0-.43.215-3.455-.866-4.645-4.443-5.945-7.468-3.243-7.706-3.788-20.063-.973-28.953.753-2.272 4.006-9.426 2.703-11.594-.654-2.068-2.813-3.25-4-4.882-1.403-2.06-2.925-4.656-3.888-6.937-2.597-6.068-3.902-12.792-6.704-18.86-1.298-2.823-3.573-5.75-5.405-8.347-2.058-2.927-4.326-4.986-5.95-8.451-.536-1.195-1.294-3.148-.432-4.444.212-.869.651-1.196 1.518-1.413 1.397-1.193 5.402.322 6.805.972 4.003 1.622 7.354 3.148 10.701 5.42 1.516 1.086 3.137 3.145 5.08 3.692h2.275c3.458.753 7.352.21 10.598 1.19 5.726 1.842 10.914 4.551 15.566 7.479 14.158 8.998 25.834 21.792 33.722 37.073 1.3 2.49 1.846 4.769 3.033 7.365 2.27 5.322 5.084 10.742 7.35 15.94 2.269 5.095 4.435 10.294 7.683 14.528 1.617 2.272 8.105 3.465 11.025 4.658 2.158.972 5.514 1.841 7.461 3.032 3.675 2.272 7.343 4.878 10.808 7.375 1.726 1.3 7.133 4.008 7.459 6.179"/><path d="M155.314 26.797a17.27 17.27 0 0 0-4.432.545v.217h.21c.873 1.73 2.388 2.932 3.46 4.447.87 1.735 1.629 3.463 2.492 5.2.107-.107.21-.22.21-.22 1.525-1.08 2.28-2.812 2.28-5.418-.653-.764-.755-1.517-1.3-2.279-.647-1.081-2.053-1.623-2.92-2.492"/></g></svg>