<svg id="Слой_1" xmlns="http://www.w3.org/2000/svg" viewBox="0 0 74.1 70.7"><style>.st0{fill:url(#SVGID_1_)}.st1{fill:url(#SVGID_2_)}</style><linearGradient id="SVGID_1_" gradientUnits="userSpaceOnUse" x1="-239.283" y1="-530.136" x2="-267.066" y2="-557.919" gradientTransform="translate(311.598 595.686)"><stop offset="0" stop-color="#d82643"/><stop offset="1" stop-color="#a01d20"/></linearGradient><path class="st0" d="M58.4 29.8c-8 0-14.5 6.5-14.5 14.6 0 4.1 1.7 7.8 4.4 10.4v14.1c0 .3.2.6.4.7.3.2.6.2.8 0l8.8-4.7 8.8 4.7c.1.1.3.1.4.1.2 0 .3 0 .4-.1.3-.2.4-.4.4-.7V54.8c2.7-2.6 4.4-6.4 4.4-10.4.2-8-6.3-14.6-14.3-14.6zm-5.3 36.1L50 67.6V56.3c1 .7 2 1.3 3.1 1.7v7.9zM62 65l-3.2-1.7c-.3-.1-.6-.1-.8 0L54.8 65v-6.5c1.1.3 2.3.4 3.6.4 1.2 0 2.4-.2 3.6-.4V65zm4.8 2.5l-3.1-1.7v-7.9c1.1-.4 2.2-1 3.1-1.7v11.3zm-8.4-10.3c-7 0-12.8-5.8-12.8-12.8 0-7.1 5.7-12.8 12.8-12.8 7 0 12.8 5.8 12.8 12.8 0 7.1-5.7 12.8-12.8 12.8zm0-21.4c-4.7 0-8.6 3.9-8.6 8.6 0 4.8 3.8 8.6 8.6 8.6 4.7 0 8.6-3.9 8.6-8.6 0-4.8-3.9-8.6-8.6-8.6zm0 15.5c-3.8 0-6.9-3.1-6.9-6.9 0-3.8 3.1-6.9 6.9-6.9s6.9 3.1 6.9 6.9-3.1 6.9-6.9 6.9z"/><linearGradient id="SVGID_2_" gradientUnits="userSpaceOnUse" x1="-261.046" y1="-551.488" x2="-306.753" y2="-597.194" gradientTransform="translate(311.598 595.686)"><stop offset="0" stop-color="#6589c6"/><stop offset="1" stop-color="#345eac"/></linearGradient><path class="st1" d="M64.2 1.4H2.3c-.6 0-1 .5-1 1v49c0 .6.5 1 1 1h40l-.3-2H3.4v-47h59.9V27l2.1-.3V2.4c-.2-.6-.6-1-1.2-1zM46 6.5c0-.6-.5-1-1-1H11.6c-.6 0-1 .5-1 1 0 2.2-1.8 4-4.1 4-.6 0-1 .5-1 1v30.7c0 .6.5 1 1 1 2.3 0 4.1 1.8 4.1 4 0 .6.5 1 1 1h29.2l-.2-2H12.5c-.4-2.5-2.5-4.5-5-5V12.5c2.6-.4 4.6-2.4 5-5H45c.5 0 1-.5 1-1zm14.1 4c-2.3 0-4.1-1.8-4.1-4 0-.6-.5-1-1-1h-5.9c-.6 0-1 .5-1 1 0 .6.5 1 1 1H54c.4 2.5 2.5 4.5 5 5v13.1l2.1-.2V11.5c0-.5-.5-1-1-1zm-20.5 1.9c-.3 0-.6.1-.8.4l-2.4 3-2.4-3c-.2-.2-.5-.4-.8-.4s-.6.1-.8.4l-2.4 3-2.4-3c-.2-.2-.5-.4-.8-.4s-.6.1-.8.4l-3.2 4.1c-.3.4-.3 1.1.2 1.4.2.1.4.2.6.2.3 0 .6-.1.8-.4l2.4-3 2.4 3c.2.2.5.4.8.4s.6-.1.8-.4l2.4-3 2.4 3c.2.2.5.4.8.4s.6-.1.8-.4l2.4-3 2.4 3c.4.4 1 .5 1.4.2.5-.3.5-1 .2-1.4l-3.2-4.1c-.1-.3-.4-.4-.8-.4zm9.5 13.5H17.4c-.6 0-1 .5-1 1 0 .6.5 1 1 1h31.7c.6 0 1-.5 1-1s-.5-1-1-1zm4.1-4H13.3c-.6 0-1 .5-1 1 0 .6.5 1 1 1h39.9c.6 0 1-.5 1-1 0-.6-.4-1-1-1zM38.4 36.5c0-2.8-2.3-5.1-5.2-5.1-2.8 0-5.2 2.3-5.2 5.1s2.3 5.1 5.2 5.1c2.9-.1 5.2-2.3 5.2-5.1zm-8.3 0c0-1.7 1.4-3.1 3.1-3.1s3.1 1.4 3.1 3.1c0 1.7-1.4 3.1-3.1 3.1-1.7-.1-3.1-1.5-3.1-3.1zm-5.1 1c.6 0 1-.5 1-1 0-.6-.5-1-1-1h-7.6c-.6 0-1 .5-1 1 0 .6.5 1 1 1H25z"/></svg>